<?xml version="1.0" encoding="utf-8"?>
<!-- Generator: Adobe Illustrator 21.1.0, SVG Export Plug-In . SVG Version: 6.00 Build 0)  -->
<svg version="1.1" id="Layer_1" xmlns="http://www.w3.org/2000/svg" xmlns:xlink="http://www.w3.org/1999/xlink" x="0px" y="0px"
	 viewBox="0 0 100 100" style="enable-background:new 0 0 100 100;" xml:space="preserve">
<style type="text/css">
	.st0{fill:none;stroke:#000000;stroke-width:4;stroke-miterlimit:10;}
	.st1{fill-rule:evenodd;clip-rule:evenodd;fill:none;stroke:#000000;stroke-width:10;stroke-miterlimit:10;}
	.st2{fill:none;stroke:#000000;stroke-width:10;stroke-miterlimit:10;}
	.st3{fill-rule:evenodd;clip-rule:evenodd;}
	.st4{fill-rule:evenodd;clip-rule:evenodd;fill:none;stroke:#000000;stroke-width:4;stroke-miterlimit:10;}
	.st5{fill-rule:evenodd;clip-rule:evenodd;fill:none;stroke:#000000;stroke-width:4;stroke-linejoin:bevel;stroke-miterlimit:10;}
</style>
<g>
	<path d="M70,65c2.8,0,5,2.2,5,5v10H25V70c0-2.8,2.2-5,5-5H70 M70,55H30c-8.3,0-15,6.7-15,15v20h70V70C85,61.7,78.3,55,70,55L70,55z
		"/>
</g>
<g>
	<path d="M50,20c5.5,0,10,4.5,10,10s-4.5,10-10,10s-10-4.5-10-10S44.5,20,50,20 M50,10c-11,0-20,9-20,20s9,20,20,20s20-9,20-20
		S61,10,50,10L50,10z"/>
</g>
</svg>
