<?xml version="1.0" encoding="utf-8"?>
<!-- Generator: Adobe Illustrator 22.1.0, SVG Export Plug-In . SVG Version: 6.00 Build 0)  -->
<svg version="1.1" id="Layer_1" xmlns="http://www.w3.org/2000/svg" xmlns:xlink="http://www.w3.org/1999/xlink" x="0px" y="0px"
	 viewBox="0 0 512 512" style="enable-background:new 0 0 512 512;" xml:space="preserve">
<style type="text/css">
	.st0{fill:#E5705C;}
	.st1{fill:#3D6753;}
</style>
<ellipse transform="matrix(0.2769 -0.9609 0.9609 0.2769 -204.6464 517.446)" class="st0" cx="241.5" cy="394.7" rx="80.2" ry="231.6"/>
<g>
	<path class="st1" d="M326.6,0c-18.4,1.7-36.2,4.4-53.3,8.2C176,29.8,54.9,102.2,54.9,224.9c0,44.2,15.8,85.9,44.7,118.7
		c5.5-98.1,45.5-190.4,113.6-261.5C247,46.9,286.1,18.9,326.6,0L326.6,0z"/>
	<path class="st1" d="M129.1,496.9c0,8.3,6.7,15.1,15.1,15.1c8.3,0,15.1-6.7,15.1-15.1v-76c-10.4-4-20.4-8.8-30.1-14.5V496.9z"/>
	<path class="st1" d="M456.5,13.5c-1.9-6.4-7.8-10.9-14.5-10.9C372.6,2.6,295.2,40.2,235,103c-67.1,70-104.7,162.2-105.9,259.5
		c0,0,0,0.1,0,0.1c0,0,0,0.1,0,0.1v7.9c2.2,1.6,4.5,3.2,6.8,4.7c69.8,46,164.8,38.2,226.1-23.1c53-53,42-126.1,38.4-167.1
		c-5.5-62.6-10.3-116.7,49.7-154.6C455.7,26.8,458.4,19.9,456.5,13.5z"/>
</g>
</svg>
