<?xml version="1.0" encoding="iso-8859-1"?>
<!-- Generator: Adobe Illustrator 19.0.0, SVG Export Plug-In . SVG Version: 6.00 Build 0)  -->
<svg version="1.1" id="Capa_1" xmlns="http://www.w3.org/2000/svg" xmlns:xlink="http://www.w3.org/1999/xlink" x="0px" y="0px"
	 viewBox="0 0 512 512" style="enable-background:new 0 0 512 512;" xml:space="preserve">
<g>
	<g>
		<path d="M428.969,161.729c-45.729-34.313-83.823-76.542-113.198-125.5l-2.156-3.615C301.531,12.5,279.458,0,256,0
			s-45.531,12.5-57.625,32.635l-2.135,3.573c-29.385,48.979-67.479,91.208-113.198,125.51C71.115,170.656,64,184.885,64,199.792
			c0,19.646,11.792,37.01,30.042,44.25c23.867,9.466,65.978,23.767,114.689,30.074l-16.522,181.717
			c-0.146,1.563-0.208,3.115-0.208,4.688C192,488.906,215.094,512,243.479,512h25.042C296.906,512,320,488.906,320,460.521
			c0-1.573-0.063-3.125-0.208-4.667L303.27,274.116c48.71-6.307,90.819-20.608,114.678-30.074
			c18.26-7.24,30.052-24.604,30.052-44.25C448,184.885,440.885,170.656,428.969,161.729z M213.021,124.073
			c-24.313,30.5-52.302,58.24-83.219,82.438c-1.948,1.531-4.271,2.271-6.563,2.271c-3.167,0-6.302-1.406-8.406-4.094
			c-3.635-4.635-2.823-11.344,1.823-14.969c29.604-23.177,56.406-49.74,79.677-78.938c3.656-4.604,10.385-5.365,14.99-1.698
			C215.927,112.76,216.688,119.469,213.021,124.073z"/>
	</g>
</g>
<g>
</g>
<g>
</g>
<g>
</g>
<g>
</g>
<g>
</g>
<g>
</g>
<g>
</g>
<g>
</g>
<g>
</g>
<g>
</g>
<g>
</g>
<g>
</g>
<g>
</g>
<g>
</g>
<g>
</g>
</svg>
