<svg xmlns="http://www.w3.org/2000/svg" width="20.335" height="33.552" viewBox="0 0 20.335 33.552">
  <g id="Group_10" data-name="Group 10" transform="translate(-134 -560)">
    <path id="Icon_map-map-pin" data-name="Icon map-map-pin" d="M18.011,1.728A10.072,10.072,0,0,0,7.844,11.7c0,5.509,10.167,23.577,10.167,23.577S28.179,17.212,28.179,11.7A10.074,10.074,0,0,0,18.011,1.728Z" transform="translate(126.156 558.272)" fill="#8cb808"/>
    <g id="Group_6" data-name="Group 6" transform="translate(-440.616 128.571)">
      <path id="Path_32" data-name="Path 32" d="M587.987,441.241l-.371-1.514s-.558-3.719.185-4.211c.837-.231,2.749,1.774,2.595,2.853a14.014,14.014,0,0,1-.864,3.731l-.185-.092" fill="#fff"/>
      <path id="Path_33" data-name="Path 33" d="M581.061,442.658a5.976,5.976,0,0,1-1.4-4.259,3.794,3.794,0,0,1,2.533-2.97s.369-.023.392.69a30.215,30.215,0,0,1-.092,3.662,11.857,11.857,0,0,0-.323,1.532" fill="#fff"/>
      <path id="Path_34" data-name="Path 34" d="M590.131,443.046c.111-1.176-.692-2.1-1.688-1.563-.069-.747-.526-1.093-1.3-.733a.9.9,0,0,0-1.633-.111.812.812,0,0,0-.816-.72,1.079,1.079,0,0,0-1.149.969.758.758,0,0,0-.761-.429c-.373-.014-.857.235-.844,1.107a.714.714,0,0,0-.553-.138s-.581.055-.473,1.288c-.672-.246-1.231.358-.733,1.25-.94.277-.525,1.543.138,1.659a.505.505,0,0,0,0,.774c-.205.327-.294.5.088.968a.682.682,0,0,0,.223.791.83.83,0,0,0,.369,1.047.541.541,0,0,0,.032.633l7.2,1.137a.734.734,0,0,0,.8-.863c.855-.248.46-.928.46-.928.278.1.505-.745.344-1a.713.713,0,0,0,.227-.854c.221-.074.324-.973.044-1.077a.838.838,0,0,0,.044-.9C590.572,445.442,591.677,443.436,590.131,443.046Z" fill="#fff"/>
      <path id="Path_35" data-name="Path 35" d="M584.711,448.775s.063.821.552.806c.494-.088.484-.8.484-.8l-.007-.058a1.171,1.171,0,0,1-.481-.265C585.087,448.556,584.853,448.8,584.711,448.775Z" fill="#dc000c"/>
      <path id="Path_36" data-name="Path 36" d="M585.239,446.957a.432.432,0,0,0-.767.025c-.207.584.684.773.761.773s1-.126.83-.77a.439.439,0,0,0-.788-.03" fill="#1a1311"/>
      <path id="Path_37" data-name="Path 37" d="M585.233,447.755l-.011.653s.714.843,1.031-.188" fill="none" stroke="#1a1311" stroke-miterlimit="10" stroke-width="0.25"/>
      <path id="Path_38" data-name="Path 38" d="M584.2,448.229s.141.536.5.513a.826.826,0,0,0,.517-.334" fill="none" stroke="#1a1311" stroke-miterlimit="10" stroke-width="0.25"/>
      <path id="Path_39" data-name="Path 39" d="M581.064,449.844c-.014.013-.025.026-.038.038.053.163.259.69.674.625,0,0,.046.352.52.367a21.892,21.892,0,0,0,5.521.337s.236.18.523-.232l-7.2-1.137Z" fill="#fff"/>
    </g>
  </g>
</svg>
