<svg id="Icon_feather-settings" data-name="Icon feather-settings" xmlns="http://www.w3.org/2000/svg" width="31.438" height="31.438" viewBox="0 0 31.438 31.438">
  <path id="Path_13" data-name="Path 13" d="M21.256,17.378A3.878,3.878,0,1,1,17.378,13.5,3.878,3.878,0,0,1,21.256,17.378Z" transform="translate(-1.659 -1.659)" fill="none" stroke="#0d311a" stroke-linecap="round" stroke-linejoin="round" stroke-width="3"/>
  <path id="Path_14" data-name="Path 14" d="M25.284,19.6a2.133,2.133,0,0,0,.427,2.353l.078.078a2.587,2.587,0,1,1-3.658,3.658l-.078-.078a2.15,2.15,0,0,0-3.645,1.525v.22a2.585,2.585,0,1,1-5.17,0v-.116a2.133,2.133,0,0,0-1.4-1.952,2.133,2.133,0,0,0-2.353.427l-.078.078A2.587,2.587,0,1,1,5.753,22.13l.078-.078A2.15,2.15,0,0,0,4.3,18.407h-.22a2.585,2.585,0,1,1,0-5.17H4.2a2.133,2.133,0,0,0,1.952-1.4,2.133,2.133,0,0,0-.427-2.353l-.078-.078A2.587,2.587,0,1,1,9.307,5.753l.078.078a2.133,2.133,0,0,0,2.353.427h.1A2.133,2.133,0,0,0,13.134,4.3v-.22a2.585,2.585,0,1,1,5.17,0V4.2a2.15,2.15,0,0,0,3.645,1.525l.078-.078a2.587,2.587,0,1,1,3.658,3.658l-.078.078a2.133,2.133,0,0,0-.427,2.353v.1a2.133,2.133,0,0,0,1.952,1.293h.22a2.585,2.585,0,1,1,0,5.17h-.116A2.133,2.133,0,0,0,25.284,19.6Z" transform="translate(0 0)" fill="none" stroke="#0d311a" stroke-linecap="round" stroke-linejoin="round" stroke-width="3"/>
</svg>
