<svg id="图层_1" data-name="图层 1" xmlns="http://www.w3.org/2000/svg" viewBox="0 0 36.09 29.86"><title>list</title><path d="M380.56,652h11.33a2.15,2.15,0,0,1,2.08,2,6.35,6.35,0,0,1,0,.76v2.06a2.29,2.29,0,0,1-2,2.48H369.21a2.15,2.15,0,0,1-2.09-2,5.91,5.91,0,0,1,0-.94q0-.87,0-1.74c0-1.53.86-2.57,2.13-2.57Z" transform="translate(-357.91 -652)"/><path d="M380.52,681.86H369.21a2,2,0,0,1-1.95-1.49,3,3,0,0,1-.17-.94c0-.82,0-1.63,0-2.44a2.27,2.27,0,0,1,2-2.44h22.78a2.17,2.17,0,0,1,2.1,2,5.94,5.94,0,0,1,0,.73v2c0,1.51-.87,2.56-2.13,2.56H380.52Z" transform="translate(-357.91 -652)"/><path d="M380.57,663.29h11.28c1.3,0,2.15,1,2.15,2.58v2.25a2.25,2.25,0,0,1-2,2.46H369.11a2.24,2.24,0,0,1-2-2.43c0-.8,0-1.6,0-2.39a2.24,2.24,0,0,1,2.05-2.47Z" transform="translate(-357.91 -652)"/><path d="M357.91,655.66v-1.81a1.82,1.82,0,0,1,1.78-1.83c1.25,0,2.5,0,3.74,0a1.81,1.81,0,0,1,1.77,1.81q0,1.83,0,3.66a1.82,1.82,0,0,1-1.79,1.82q-1.85,0-3.69,0a1.83,1.83,0,0,1-1.81-1.88Z" transform="translate(-357.91 -652)"/><path d="M365.2,678.2c0,.59,0,1.19,0,1.79a1.83,1.83,0,0,1-1.85,1.86c-1.2,0-2.39,0-3.58,0a1.84,1.84,0,0,1-1.86-1.89v-3.53a1.84,1.84,0,0,1,1.84-1.88h3.61a1.84,1.84,0,0,1,1.84,1.88C365.21,677,365.2,677.61,365.2,678.2Z" transform="translate(-357.91 -652)"/><path d="M361.55,670.58h-1.76a1.84,1.84,0,0,1-1.88-1.87v-3.56a1.83,1.83,0,0,1,1.85-1.86h3.61a1.82,1.82,0,0,1,1.83,1.83q0,1.82,0,3.63a1.82,1.82,0,0,1-1.83,1.83Z" transform="translate(-357.91 -652)"/></svg>