<svg id="图层_1" data-name="图层 1" xmlns="http://www.w3.org/2000/svg" viewBox="0 0 24.27 29.36"><title>map</title><path d="M177.86,1041.5l-1-1.33a59.65,59.65,0,0,1-5.58-8.48,17,17,0,0,1-1.72-4.32,7.9,7.9,0,0,1,2-7.4,8.13,8.13,0,0,1,8.55-2.46,8.27,8.27,0,0,1,6.13,6.5,8.08,8.08,0,0,1-.4,4.66,29,29,0,0,1-2.59,5.24,68,68,0,0,1-5.27,7.44S177.92,1041.42,177.86,1041.5Zm0-10.69a5.07,5.07,0,1,0-5.06-5.08A5.09,5.09,0,0,0,177.86,1030.81Z" transform="translate(-165.73 -1017.16)"/><path d="M168.46,1038H173a.36.36,0,0,1,.35.19c1.38,2,2.86,3.89,4.42,5.73,0,0,0,0,.07.08l.16-.18c1.55-1.82,3-3.71,4.39-5.67a.35.35,0,0,1,.24-.14h4.63l2.72,8.54H165.73Z" transform="translate(-165.73 -1017.16)"/><path d="M177.85,1029.22a3.48,3.48,0,1,1,3.5-3.46A3.48,3.48,0,0,1,177.85,1029.22Z" transform="translate(-165.73 -1017.16)"/></svg>