<svg id="图层_1" data-name="图层 1" xmlns="http://www.w3.org/2000/svg" viewBox="0 0 30.72 30.7"><title>profile</title><path d="M375.64,682H362.31a1.94,1.94,0,0,1-2-1.9c0-1,0-2,0-3a2.65,2.65,0,0,1,1.48-2.22c2.92-1.59,5.85-3.15,8.77-4.74a.82.82,0,0,1,.89,0A8.77,8.77,0,0,0,380,670a.44.44,0,0,1,.48,0c3,1.61,6,3.22,9,4.84a2.71,2.71,0,0,1,1.53,2.45c0,1,0,1.93,0,2.89a1.89,1.89,0,0,1-1.92,1.78H375.64Z" transform="translate(-360.28 -651.31)"/><path d="M375.62,669.34A7.37,7.37,0,0,1,370,666.7a9.84,9.84,0,0,1,.56-13.31,7.26,7.26,0,0,1,10.52.36,9.29,9.29,0,0,1,2.49,5.78,9.49,9.49,0,0,1-2.22,7.1,7.46,7.46,0,0,1-5,2.7A6.06,6.06,0,0,1,375.62,669.34Z" transform="translate(-360.28 -651.31)"/></svg>