<svg width="50" height="50" viewBox="0 0 50 50" fill="none" xmlns="http://www.w3.org/2000/svg">
<rect width="50" height="50" fill="white"/>
<g clip-path="url(#clip0)">
<path d="M21.2432 16.0715C16.9703 17.1394 4.97741 24.7103 5 27.1088C5.02063 29.2778 7.70917 33.5972 8.36633 34.0267C9.00384 34.4424 12.6806 34.6513 15.1009 34.058C16.0999 34.968 18.8258 35.9662 21.3778 35.673C25.9838 35.1445 28.3187 30.5898 29.024 29.6975L24.5241 48.29C24.4747 48.4938 24.4724 48.7062 24.5172 48.9111C24.5621 49.116 24.653 49.308 24.783 49.4727C24.9131 49.6374 25.079 49.7705 25.2681 49.8618C25.4572 49.9532 25.6647 50.0004 25.8748 50.0001H43.3773C43.7138 49.9999 44.0388 49.8776 44.2918 49.6561C44.5447 49.4346 44.7085 49.1289 44.7525 48.7959C45.4896 43.2761 45.5704 37.6886 44.9932 32.1499C44.449 26.9842 43.2457 21.696 40.3518 16.3441C38.7586 13.3975 37.9275 12.5258 35.0327 11.6198C31.5053 10.5166 27.862 12.0875 27.1115 12.665L17.6166 0.147144C17.5648 0.0795586 17.4911 0.0320111 17.4081 0.0126104C17.325 -0.00679024 17.2379 0.00315739 17.1614 0.0407569C17.0849 0.0783564 17.0238 0.141279 16.9886 0.218795C16.9534 0.29631 16.9462 0.383618 16.9683 0.465828C18.3939 5.6674 19.8189 10.8693 21.2432 16.0715Z" fill="url(#paint0_linear)"/>
<path d="M22.2344 24.5434C23.1876 24.5434 23.9603 23.772 23.9603 22.8205C23.9603 21.869 23.1876 21.0977 22.2344 21.0977C21.2812 21.0977 20.5085 21.869 20.5085 22.8205C20.5085 23.772 21.2812 24.5434 22.2344 24.5434Z" fill="white" stroke="white" stroke-miterlimit="10"/>
</g>
<defs>
<linearGradient id="paint0_linear" x1="5" y1="24.9996" x2="45.3743" y2="24.9996" gradientUnits="userSpaceOnUse">
<stop stop-color="#C53C7B"/>
<stop offset="0.27" stop-color="#A86090"/>
<stop offset="0.85" stop-color="#5EBAC4"/>
<stop offset="1" stop-color="#4AD2D2"/>
</linearGradient>
<clipPath id="clip0">
<rect width="40.3743" height="50" fill="white" transform="translate(5)"/>
</clipPath>
</defs>
</svg>
