<svg width="50" height="50" viewBox="0 0 50 50" fill="none" xmlns="http://www.w3.org/2000/svg">
<rect width="50" height="50" fill="white"/>
<g clip-path="url(#clip0)">
<path d="M43.0165 50.0001H24.5277C24.3357 49.9996 24.1464 49.9546 23.974 49.8687C23.8015 49.7828 23.6503 49.6581 23.5319 49.5041C23.4134 49.35 23.3307 49.1706 23.29 48.9792C23.2492 48.7879 23.2515 48.5896 23.2967 48.3993L26.5088 34.8353C25.4914 35.4764 24.2729 35.9885 22.8685 36.3618C20.4908 36.9941 18.0901 36.0412 16.656 35.4715L16.3207 35.3395C15.8686 35.4099 15.1175 35.4607 13.7965 35.4646C13.0301 35.4646 11.1352 35.451 10.0671 35.234C9.71551 35.1626 8.89261 34.9965 7.41159 32.0617C6.99295 31.2339 6.0187 29.1395 6.00433 27.5905C5.99187 26.6405 6.65862 25.6056 8.16072 24.2266C9.23365 23.2493 10.7156 22.1097 12.4486 20.9428C14.9029 19.2902 18.0872 17.4431 20.3921 16.5449L16.3993 1.63809C16.3211 1.34746 16.3446 1.03811 16.4658 0.763257C16.587 0.488406 16.7983 0.265247 17.0634 0.132179C17.3284 -0.00088845 17.6307 -0.0355431 17.9181 0.0341785C18.2055 0.1039 18.4601 0.273638 18.6381 0.514184L27.6238 12.6201C29.2198 12.0054 31.9251 11.5089 34.617 12.0093C36.9813 12.4471 38.4231 14.0782 40.2557 16.9339C43.3662 21.7804 44.1307 27.0813 44.647 32.0959C45.2175 37.6891 45.093 43.3334 44.2763 48.8948C44.2316 49.2027 44.0797 49.484 43.8483 49.687C43.617 49.89 43.3217 50.0011 43.0165 50.0001ZM26.1419 47.4083H41.912C42.5609 42.4202 42.6316 37.3715 42.1228 32.3666C41.6189 27.4732 40.9349 22.7196 38.1328 18.3539C36.4458 15.726 35.4821 14.8044 34.1649 14.56C31.3044 14.0294 28.5071 14.9226 28.0099 15.2793C27.8773 15.3838 27.7256 15.4602 27.5638 15.5043C27.4019 15.5484 27.2331 15.5592 27.0671 15.5361C26.9011 15.513 26.7413 15.4565 26.5969 15.3698C26.4526 15.2831 26.3265 15.1679 26.2262 15.0311L20.5875 7.43449L23.1645 17.0502C23.2092 17.2167 23.2209 17.3906 23.1989 17.5618C23.1768 17.733 23.1215 17.8979 23.0361 18.0469C22.9507 18.196 22.8369 18.3261 22.7015 18.4297C22.5662 18.5332 22.4119 18.6082 22.2477 18.6501C20.6508 19.0576 17.3525 20.7874 14.2256 22.8525C10.4896 25.3261 8.78436 27.0725 8.54391 27.6413C8.57457 28.1475 8.83801 29.1463 9.50188 30.5371C10.0393 31.66 10.5557 32.433 10.8047 32.7282C12.1813 32.9236 15.266 32.8914 15.951 32.7712C16.2166 32.6705 16.5077 32.6636 16.7777 32.7516C17.0076 32.8269 17.2701 32.9305 17.5728 33.0507C18.7224 33.5061 20.6383 34.2694 22.2218 33.8482C26.0212 32.8376 26.936 31.0501 27.4821 29.9819C27.6183 29.6934 27.7802 29.4183 27.9658 29.16C28.1451 28.9273 28.397 28.7642 28.6798 28.6978C28.9625 28.6314 29.259 28.6658 29.52 28.7951C29.7809 28.9245 29.9906 29.1412 30.1141 29.409C30.2376 29.6768 30.2675 29.9797 30.1989 30.2673L26.1419 47.4083Z" fill="#8A5CA6"/>
</g>
<defs>
<clipPath id="clip0">
<rect width="39" height="50" fill="white" transform="translate(6)"/>
</clipPath>
</defs>
</svg>
