<svg width="50" height="50" viewBox="0 0 50 50" fill="none" xmlns="http://www.w3.org/2000/svg">
<rect width="50" height="50" fill="white"/>
<g clip-path="url(#clip0)">
<path d="M25.0005 0C15.0756 0 7 8.12305 7 18.1084C7 30.499 23.1085 48.6904 23.7938 49.4561C23.9458 49.6263 24.1317 49.7625 24.3394 49.8558C24.5471 49.949 24.7721 49.9972 24.9995 49.9972C25.227 49.9972 25.4519 49.949 25.6596 49.8558C25.8673 49.7625 26.0532 49.6263 26.2052 49.4561C26.8915 48.6875 42.999 30.4961 42.999 18.1084C43 8.12305 34.9254 0 25.0005 0ZM25.0005 27.2187C23.2091 27.2189 21.4579 26.6847 19.9683 25.6836C18.4787 24.6825 17.3177 23.2595 16.6321 21.5946C15.9465 19.9297 15.767 18.0976 16.1165 16.3301C16.4659 14.5626 17.3285 12.939 18.5952 11.6647C19.8619 10.3904 21.4758 9.52265 23.2328 9.17112C24.9898 8.81959 26.8109 9.0001 28.4659 9.68984C30.1209 10.3796 31.5354 11.5475 32.5306 13.046C33.5257 14.5445 34.0567 16.3063 34.0565 18.1084C34.0537 20.5237 33.0987 22.8393 31.401 24.5472C29.7032 26.2552 27.4014 27.2159 25.0005 27.2187Z" fill="url(#paint0_linear)"/>
</g>
<defs>
<linearGradient id="paint0_linear" x1="7" y1="25" x2="43.001" y2="25" gradientUnits="userSpaceOnUse">
<stop stop-color="#C53C7B"/>
<stop offset="0.27" stop-color="#A86090"/>
<stop offset="0.85" stop-color="#5EBAC4"/>
<stop offset="1" stop-color="#4AD2D2"/>
</linearGradient>
<clipPath id="clip0">
<rect width="36" height="50" fill="white" transform="translate(7)"/>
</clipPath>
</defs>
</svg>
