<svg width="50" height="50" viewBox="0 0 50 50" fill="none" xmlns="http://www.w3.org/2000/svg">
<rect width="50" height="50" fill="white"/>
<g clip-path="url(#clip0)">
<path d="M24.9995 0C34.9244 0 43 8.12305 43 18.1084C43 30.499 26.8915 48.6904 26.2061 49.4561C26.0542 49.6263 25.8683 49.7625 25.6606 49.8558C25.4529 49.949 25.2279 49.9972 25.0005 49.9972C24.773 49.9972 24.5481 49.949 24.3404 49.8558C24.1327 49.7625 23.9468 49.6263 23.7948 49.4561C23.1085 48.6875 7.00097 30.4961 7.00097 18.1084C7 8.12305 15.0746 0 24.9995 0ZM24.9995 45.8721C30.4211 39.3936 39.7548 26.6123 39.7548 18.1084C39.7548 9.9209 33.1334 3.26465 24.9995 3.26465C16.8657 3.26465 10.2442 9.9248 10.2442 18.1084C10.2442 26.6133 19.5769 39.3916 24.9995 45.8721Z" fill="#8A5CA6"/>
<path d="M24.9995 8.99707C26.7909 8.99688 28.542 9.53108 30.0316 10.5321C31.5211 11.5332 32.6822 12.9561 33.3678 14.621C34.0535 16.2858 34.233 18.1178 33.8836 19.8853C33.5342 21.6528 32.6717 23.2764 31.4051 24.5507C30.1385 25.8251 28.5247 26.6929 26.7678 27.0446C25.0109 27.3962 23.1897 27.2159 21.5347 26.5263C19.8797 25.8367 18.4651 24.6689 17.4699 23.1705C16.4747 21.6721 15.9434 19.9105 15.9434 18.1084C15.946 15.6929 16.9009 13.377 18.5987 11.6689C20.2964 9.9608 22.5984 8.99991 24.9995 8.99707ZM24.9995 23.958C26.1496 23.958 27.2738 23.6149 28.23 22.9722C29.1862 22.3294 29.9315 21.4158 30.3716 20.3469C30.8117 19.2781 30.9269 18.1019 30.7025 16.9672C30.4782 15.8325 29.9244 14.7902 29.1112 13.9721C28.298 13.154 27.2619 12.5969 26.1339 12.3712C25.006 12.1455 23.8368 12.2613 22.7743 12.7041C21.7118 13.1468 20.8037 13.8966 20.1647 14.8585C19.5258 15.8205 19.1848 16.9515 19.1848 18.1084C19.1873 19.659 19.8008 21.1454 20.8907 22.2418C21.9806 23.3383 23.4581 23.9554 24.9995 23.958Z" fill="#8A5CA6"/>
</g>
<defs>
<clipPath id="clip0">
<rect width="36" height="50" fill="white" transform="matrix(-1 0 0 1 43 0)"/>
</clipPath>
</defs>
</svg>
