<svg width="50" height="51" viewBox="0 0 50 51" fill="none" xmlns="http://www.w3.org/2000/svg">
<g clip-path="url(#clip0)">
<path d="M26.5693 50.6196H23.4307C22.2104 50.6183 21.0405 50.133 20.1776 49.2701C19.3147 48.4073 18.8294 47.2374 18.8281 46.0171V44.9556C17.7485 44.6104 16.6999 44.175 15.6934 43.6538L14.9414 44.4067C14.5139 44.8343 14.0064 45.1734 13.4479 45.4048C12.8893 45.6362 12.2906 45.7553 11.686 45.7553C11.0814 45.7553 10.4828 45.6362 9.92422 45.4048C9.36566 45.1734 8.85815 44.8343 8.43066 44.4067L6.21289 42.188C5.78527 41.7607 5.44605 41.2532 5.2146 40.6948C4.98316 40.1363 4.86404 39.5376 4.86404 38.9331C4.86404 38.3286 4.98316 37.7299 5.2146 37.1715C5.44605 36.613 5.78527 36.1056 6.21289 35.6782L6.96484 34.9263C6.44402 33.9197 6.00889 32.8711 5.66406 31.7915H4.60254C3.38235 31.79 2.21257 31.3045 1.34976 30.4417C0.486957 29.5789 0.00155044 28.4092 0 27.189L0 24.0503C0.00155044 22.8301 0.486957 21.6603 1.34976 20.7975C2.21257 19.9347 3.38235 19.4493 4.60254 19.4478H5.66406C6.00963 18.3683 6.44507 17.3197 6.96582 16.313L6.21289 15.561C5.78539 15.1336 5.44627 14.6262 5.2149 14.0677C4.98353 13.5092 4.86444 12.9107 4.86444 12.3062C4.86444 11.7016 4.98353 11.1031 5.2149 10.5446C5.44627 9.9861 5.78539 9.47867 6.21289 9.05127L8.43164 6.83252C8.85912 6.40499 9.36664 6.06584 9.9252 5.83446C10.4838 5.60308 11.0824 5.48399 11.687 5.48399C12.2916 5.48399 12.8903 5.60308 13.4488 5.83446C14.0074 6.06584 14.5149 6.40499 14.9424 6.83252L15.6934 7.58447C16.6999 7.06365 17.7485 6.62852 18.8281 6.28369V5.22217C18.8294 4.0019 19.3147 2.83197 20.1776 1.96911C21.0405 1.10625 22.2104 0.620921 23.4307 0.619629L26.5693 0.619629C27.7896 0.620921 28.9595 1.10625 29.8224 1.96911C30.6853 2.83197 31.1706 4.0019 31.1719 5.22217V6.28369C32.2515 6.62884 33.3001 7.06429 34.3066 7.58545L35.0586 6.83252C35.4861 6.40499 35.9936 6.06584 36.5521 5.83446C37.1107 5.60308 37.7094 5.48399 38.314 5.48399C38.9186 5.48399 39.5172 5.60308 40.0758 5.83446C40.6343 6.06584 41.1419 6.40499 41.5693 6.83252L43.7871 9.05029C44.2148 9.47771 44.554 9.9852 44.7855 10.5438C45.0169 11.1023 45.136 11.701 45.136 12.3057C45.136 12.9103 45.0169 13.509 44.7855 14.0676C44.554 14.6261 44.2148 15.1336 43.7871 15.561L43.0352 16.312C43.5556 17.3191 43.9907 18.368 44.3359 19.4478H45.3975C46.6177 19.449 47.7877 19.9344 48.6505 20.7972C49.5134 21.6601 49.9987 22.83 50 24.0503V27.189C49.9987 28.4092 49.5134 29.5792 48.6505 30.442C47.7877 31.3049 46.6177 31.7902 45.3975 31.7915H44.3359C43.9904 32.871 43.5549 33.9196 43.0342 34.9263L43.7871 35.6782C44.2146 36.1057 44.5538 36.6132 44.7852 37.1718C45.0166 37.7303 45.1356 38.329 45.1356 38.9336C45.1356 39.5382 45.0166 40.1369 44.7852 40.6954C44.5538 41.254 44.2146 41.7615 43.7871 42.189L41.5693 44.4067C41.1419 44.8344 40.6344 45.1736 40.0759 45.4051C39.5173 45.6365 38.9186 45.7557 38.314 45.7557C37.7093 45.7557 37.1106 45.6365 36.5521 45.4051C35.9935 45.1736 35.486 44.8344 35.0586 44.4067L34.3076 43.6558C33.3005 44.1759 32.2516 44.6107 31.1719 44.9556V46.0171C31.1706 47.2374 30.6853 48.4073 29.8224 49.2701C28.9595 50.133 27.7896 50.6183 26.5693 50.6196ZM16.1836 40.5776C17.5808 41.4036 19.0875 42.0282 20.6592 42.4331C20.9737 42.5143 21.2523 42.6978 21.4512 42.9546C21.6501 43.2115 21.7579 43.5272 21.7578 43.8521V46.0151C21.7581 46.4589 21.9343 46.8845 22.2479 47.1984C22.5616 47.5124 22.9869 47.6892 23.4307 47.6899H26.5693C27.0128 47.6892 27.4378 47.5127 27.7514 47.1991C28.0649 46.8856 28.2414 46.4605 28.2422 46.0171V43.854C28.2421 43.5291 28.3499 43.2135 28.5488 42.9566C28.7477 42.6997 29.0263 42.5163 29.3408 42.4351C30.9125 42.0302 32.4192 41.4055 33.8164 40.5796C34.0963 40.4139 34.4233 40.346 34.746 40.3866C35.0687 40.4273 35.3687 40.5742 35.5986 40.8042L37.1309 42.3364C37.2861 42.4919 37.4704 42.6153 37.6733 42.6994C37.8763 42.7836 38.0938 42.8269 38.3135 42.8269C38.5332 42.8269 38.7507 42.7836 38.9536 42.6994C39.1566 42.6153 39.3409 42.4919 39.4961 42.3364L41.7158 40.1167C41.8712 39.9614 41.9945 39.7771 42.0785 39.5742C42.1626 39.3712 42.2059 39.1537 42.2059 38.9341C42.2059 38.7144 42.1626 38.4969 42.0785 38.294C41.9945 38.0911 41.8712 37.9067 41.7158 37.7515L40.1836 36.2183C39.9537 35.9885 39.8067 35.6887 39.7659 35.3662C39.7251 35.0438 39.7926 34.7169 39.958 34.437C40.7843 33.04 41.409 31.5333 41.8135 29.9614C41.8946 29.647 42.078 29.3685 42.3346 29.1697C42.5913 28.9708 42.9068 28.8629 43.2314 28.8628H45.3945C45.8386 28.8628 46.2646 28.6865 46.5788 28.3727C46.893 28.0588 47.0698 27.6331 47.0703 27.189V24.0503C47.0695 23.6069 46.893 23.1818 46.5795 22.8683C46.2659 22.5547 45.8409 22.3782 45.3975 22.3774H43.2344C42.9097 22.3774 42.5942 22.2694 42.3376 22.0705C42.0809 21.8717 41.8976 21.5932 41.8164 21.2788C41.4115 19.7071 40.7868 18.2004 39.9609 16.8032C39.7956 16.5234 39.728 16.1965 39.7688 15.874C39.8097 15.5515 39.9566 15.2518 40.1865 15.022L41.7188 13.4897C41.8742 13.3344 41.9974 13.15 42.0815 12.947C42.1656 12.744 42.2089 12.5264 42.2089 12.3066C42.2089 12.0869 42.1656 11.8693 42.0815 11.6663C41.9974 11.4633 41.8742 11.2789 41.7188 11.1235L39.4971 8.90478C39.3417 8.74938 39.1573 8.6261 38.9543 8.542C38.7513 8.45789 38.5337 8.4146 38.314 8.4146C38.0942 8.4146 37.8766 8.45789 37.6736 8.542C37.4706 8.6261 37.2862 8.74938 37.1309 8.90478L35.5986 10.438C35.3687 10.6677 35.0689 10.8145 34.7465 10.8552C34.424 10.8958 34.0971 10.8281 33.8174 10.6626C32.4198 9.83683 30.9128 9.2122 29.3408 8.80713C29.0258 8.72579 28.7468 8.54189 28.5479 8.28443C28.349 8.02697 28.2414 7.71061 28.2422 7.38525V5.22217C28.2414 4.77874 28.0649 4.35369 27.7514 4.04014C27.4378 3.72659 27.0128 3.55009 26.5693 3.54932H23.4307C22.9872 3.55009 22.5622 3.72659 22.2486 4.04014C21.9351 4.35369 21.7586 4.77874 21.7578 5.22217V7.38525C21.7577 7.70994 21.6498 8.0254 21.4509 8.28207C21.2521 8.53873 20.9736 8.72205 20.6592 8.80322C19.0876 9.20853 17.5809 9.83315 16.1836 10.6587C15.9036 10.8243 15.5765 10.892 15.2538 10.8512C14.9311 10.8103 14.6312 10.6632 14.4014 10.4331L12.8701 8.90478C12.7148 8.74938 12.5303 8.6261 12.3273 8.542C12.1243 8.45789 11.9067 8.4146 11.687 8.4146C11.4673 8.4146 11.2497 8.45789 11.0467 8.542C10.8437 8.6261 10.6593 8.74938 10.5039 8.90478L8.28516 11.1226C8.12975 11.2779 8.00647 11.4623 7.92237 11.6653C7.83826 11.8683 7.79497 12.0859 7.79497 12.3057C7.79497 12.5254 7.83826 12.743 7.92237 12.946C8.00647 13.149 8.12975 13.3334 8.28516 13.4888L9.81738 15.021C10.0475 15.2509 10.1946 15.5508 10.2354 15.8735C10.2763 16.1962 10.2086 16.5233 10.043 16.8032C9.21704 18.2004 8.5924 19.7071 8.1875 21.2788C8.10616 21.5938 7.92226 21.8728 7.6648 22.0717C7.40734 22.2707 7.09098 22.3782 6.76562 22.3774H4.60254C4.15911 22.3782 3.73406 22.5547 3.42051 22.8683C3.10696 23.1818 2.93046 23.6069 2.92969 24.0503V27.189C2.93046 27.6324 3.10696 28.0574 3.42051 28.371C3.73406 28.6845 4.15911 28.861 4.60254 28.8618H6.76562C7.09031 28.8619 7.40577 28.9698 7.66244 29.1687C7.9191 29.3676 8.10242 29.6461 8.18359 29.9605C8.5889 31.532 9.21352 33.0387 10.0391 34.436C10.2044 34.7159 10.272 35.0428 10.2312 35.3653C10.1903 35.6878 10.0434 35.9875 9.81348 36.2173L8.28418 37.7495C8.12878 37.9049 8.0055 38.0893 7.92139 38.2923C7.83728 38.4953 7.79399 38.7129 7.79399 38.9326C7.79399 39.1524 7.83728 39.3699 7.92139 39.5729C8.0055 39.7759 8.12878 39.9604 8.28418 40.1157L10.5029 42.3345C10.6583 42.4899 10.8427 42.6132 11.0457 42.6973C11.2487 42.7814 11.4663 42.8247 11.686 42.8247C11.9058 42.8247 12.1234 42.7814 12.3264 42.6973C12.5294 42.6132 12.7138 42.4899 12.8691 42.3345L14.4014 40.8013C14.6321 40.5726 14.932 40.4266 15.2543 40.386C15.5766 40.3454 15.9033 40.4124 16.1836 40.5767V40.5776Z" fill="#8A5CA6"/>
<path d="M25.0003 36.499C22.8487 36.499 20.7453 35.861 18.9563 34.6656C17.1673 33.4702 15.7729 31.7711 14.9495 29.7833C14.1261 27.7954 13.9107 25.608 14.3304 23.4977C14.7502 21.3874 15.7863 19.449 17.3078 17.9276C18.8292 16.4061 20.7676 15.37 22.8779 14.9503C24.9882 14.5305 27.1756 14.7459 29.1635 15.5693C31.1513 16.3927 32.8504 17.7871 34.0458 19.5761C35.2412 21.3651 35.8792 23.4685 35.8792 25.6201C35.8761 28.5044 34.7289 31.2697 32.6894 33.3092C30.6499 35.3487 27.8846 36.4959 25.0003 36.499V36.499ZM25.0003 17.6709C23.4281 17.6709 21.8912 18.1371 20.584 19.0106C19.2767 19.8841 18.2578 21.1256 17.6562 22.5781C17.0545 24.0306 16.8971 25.6289 17.2038 27.1709C17.5106 28.7129 18.2676 30.1293 19.3794 31.2411C20.4911 32.3528 21.9075 33.1099 23.4495 33.4166C24.9915 33.7233 26.5898 33.5659 28.0423 32.9642C29.4949 32.3626 30.7364 31.3437 31.6098 30.0365C32.4833 28.7292 32.9495 27.1923 32.9495 25.6201C32.9469 23.5126 32.1086 21.4922 30.6184 20.002C29.1282 18.5118 27.1078 17.6735 25.0003 17.6709V17.6709Z" fill="#8A5CA6"/>
</g>
<defs>
<clipPath id="clip0">
<rect width="50" height="50" fill="white" transform="translate(0 0.619629)"/>
</clipPath>
</defs>
</svg>
